<svg xmlns="http://www.w3.org/2000/svg" viewBox="0 0 35.62 30.77"><defs><style>.cls-1{fill:#fff;}.cls-2{fill:#2d3047;opacity:0.5;}</style></defs><title>logo_menu</title><g id="Calque_2" data-name="Calque 2"><g id="Calque_2-2" data-name="Calque 2"><path class="cls-1" d="M6.14,22.08h4.24l0-.11a10.82,10.82,0,0,1-.54-3.5V6.58H5.7v11.9A14.41,14.41,0,0,0,6.14,22.08Z"/><path class="cls-1" d="M25.24,22.08h4.23a14.39,14.39,0,0,0,.44-3.6V6.58h-4.1v11.9a10.82,10.82,0,0,1-.54,3.5Z"/><rect class="cls-1" x="25.82" width="4.1" height="6.58"/><rect class="cls-1" x="5.7" width="4.1" height="6.58"/><path class="cls-1" d="M23.71,24.73a7.08,7.08,0,0,1-2.51,1.78,8.49,8.49,0,0,1-3.37.64,8.45,8.45,0,0,1-3.38-.65,7.17,7.17,0,0,1-2.53-1.79,7.75,7.75,0,0,1-1.53-2.62H6.14a12.75,12.75,0,0,0,.4,1.29,11.25,11.25,0,0,0,2.41,3.89,11.07,11.07,0,0,0,3.82,2.58,13.06,13.06,0,0,0,5.05.93,13.06,13.06,0,0,0,5.05-.93,11,11,0,0,0,3.81-2.58,11.34,11.34,0,0,0,2.4-3.89,12.77,12.77,0,0,0,.4-1.29H25.24A7.77,7.77,0,0,1,23.71,24.73Z"/><rect class="cls-2" y="6.58" width="35.62" height="15.5"/></g></g></svg>